<?xml version="1.0" standalone="no"?><!DOCTYPE svg PUBLIC "-//W3C//DTD SVG 1.1//EN" "http://www.w3.org/Graphics/SVG/1.1/DTD/svg11.dtd"><svg t="1715779344557" class="icon" viewBox="0 0 1059 1024" version="1.1" xmlns="http://www.w3.org/2000/svg" p-id="34801" xmlns:xlink="http://www.w3.org/1999/xlink" width="264.75" height="256"><path d="M245.47559528 441.54592795c-22.69133226 22.69133226-22.69133226 59.49541033 0 82.19964256L427.48356169 705.75353691c22.69133226 22.69133226 59.49541033 22.69133226 82.18674259 0l504.91117797-504.91117797c22.69133226-22.69133226 22.69133226-59.49541033 0-82.18674258-22.69133226-22.70423326-59.49541033-22.70423326-82.19964359 0L509.67030428 541.35425077c-22.69133226 22.69133226-59.49541033 22.69133226-82.19964257 0l-99.80832385-99.80832282c-22.69133226-22.70423326-59.49541033-22.70423326-82.18674258 0z m634.66070766 481.42003594H174.43456716c-32.09552948 0-58.11509548-26.01956703-58.11509548-58.11509548V159.14913159c0-32.09552948 26.01956703-58.11509548 58.11509548-58.11509548h470.85482757c32.09552948 0 58.11509548-26.01956703 58.1150965-58.11509651v-1.18681213c0-32.09552948-26.01956703-58.11509548-58.1150965-58.11509548h-470.85482757C77.87707719-16.39586798-1.11043241 62.59164164-1.11043241 159.14913159v705.70173682c0 96.54458998 78.98750962 175.5320996 175.53209958 175.5320996h705.70173578c96.54458998 0 175.5320996-78.98750962 175.53210064-175.5320996V511.40014395c0-32.09552948-26.01956703-58.11509548-58.11509652-58.11509651h-1.17391215c-32.09552948 0-58.11509548 26.01956703-58.11509548 58.11509651v353.43782448c0 32.10842945-26.01956703 58.12799649-58.1150965 58.12799546z m58.1150965 0" fill="currentColor" p-id="34802"></path></svg>