<?xml version="1.0" standalone="no"?><!DOCTYPE svg PUBLIC "-//W3C//DTD SVG 1.1//EN" "http://www.w3.org/Graphics/SVG/1.1/DTD/svg11.dtd"><svg t="1715778591589" class="icon" viewBox="0 0 1024 1024" version="1.1" xmlns="http://www.w3.org/2000/svg" p-id="14783" xmlns:xlink="http://www.w3.org/1999/xlink" width="256" height="256"><path d="M1024 491.52 655.36 491.52c-34.133333-10.24-81.92-23.893333-136.533333-34.133333-92.16-20.48-150.186667-40.96-174.08-61.44-23.893333-20.48-34.133333-44.373333-34.133333-78.506667 0-37.546667 17.066667-68.266667 47.786667-92.16 30.72-23.893333 81.92-37.546667 153.6-37.546667 68.266667 0 116.053333 13.653333 150.186667 40.96 34.133333 27.306667 54.613333 68.266667 61.44 122.88l109.226667-6.826667c-3.413333-51.2-17.066667-95.573333-40.96-136.533333-27.306667-40.96-64.853333-71.68-112.64-92.16-47.786667-20.48-105.813333-30.72-170.666667-30.72-58.026667 0-112.64 10.24-160.426667 30.72C296.96 136.533333 262.826667 163.84 235.52 201.386667 211.626667 242.346667 197.973333 283.306667 197.973333 324.266667c0 40.96 10.24 75.093333 30.72 109.226667 13.653333 20.48 34.133333 40.96 54.613333 58.026667L0 491.52l0 85.333333 529.066667 0c58.026667 13.653333 95.573333 23.893333 116.053333 34.133333 37.546667 13.653333 61.44 30.72 78.506667 51.2 17.066667 20.48 23.893333 44.373333 23.893333 71.68 0 27.306667-6.826667 51.2-23.893333 75.093333-17.066667 23.893333-40.96 40.96-75.093333 54.613333-34.133333 13.653333-71.68 20.48-116.053333 20.48-47.786667 0-92.16-10.24-133.12-27.306667-40.96-17.066667-68.266667-40.96-88.746667-68.266667-17.066667-27.306667-30.72-64.853333-34.133333-105.813333l-109.226667 10.24c0 58.026667 17.066667 109.226667 47.786667 157.013333 30.72 44.373333 71.68 81.92 126.293333 102.4 54.613333 23.893333 119.466667 34.133333 197.973333 34.133333 61.44 0 119.466667-10.24 167.253333-34.133333 51.2-23.893333 88.746667-54.613333 112.64-95.573333 27.306667-40.96 40.96-85.333333 40.96-129.706667 0-47.786667-13.653333-88.746667-37.546667-122.88-6.826667-6.826667-10.24-13.653333-17.066667-23.893333L1024 580.266667 1024 491.52 1024 491.52zM1024 491.52" fill="currentColor" p-id="14784"></path></svg>