<svg xmlns="http://www.w3.org/2000/svg" viewBox="0 0 218.81 207"><path d="M103.59,231c-47.23-.59-85-13.61-85-29.56V171.83c0-2.57,1.28-5,3.12-7.39C31.3,176.83,64,186.11,103.59,186.6" transform="translate(-18.59 -23.97)" style="fill:currentcolor"/><path d="M103.59,171.81c-47.23-.59-85-13.61-85-29.55V112.68a10,10,0,0,1,1.39-4.6h0a16.45,16.45,0,0,1,1.73-2.8C31.3,117.67,64,127,103.59,127.45" transform="translate(-18.59 -23.97)" style="fill:currentcolor"/><path d="M48,53.52c0-7.89,24.58-14.33,55.55-14.76V24c-47.23.58-85,13.6-85,29.55V83.1c0,16,37.77,29,85,29.56V68.29C72.62,67.86,48,61.42,48,53.52Z" transform="translate(-18.59 -23.97)" style="fill:currentcolor"/><path d="M237.41,125.73q0,32.29-7.87,56.06T207,218.19a50.54,50.54,0,0,1-34,12.62H123.2V24h45.39q33.6,0,51.2,26T237.41,125.73Zm-23.52,0q0-73.38-45.78-73.38H146.42V202.49h24.67q20.25,0,31.53-20.11T213.89,125.73Z" transform="translate(-18.59 -23.97)" style="fill:currentcolor"/></svg>