<?xml version="1.0" standalone="no"?><!DOCTYPE svg PUBLIC "-//W3C//DTD SVG 1.1//EN" "http://www.w3.org/Graphics/SVG/1.1/DTD/svg11.dtd"><svg t="1715780791344" class="icon" viewBox="0 0 1024 1024" version="1.1" xmlns="http://www.w3.org/2000/svg" p-id="42095" xmlns:xlink="http://www.w3.org/1999/xlink" width="256" height="256"><path d="M977.422577 372.08693l-290.840911 290.840911c-1.343967 1.343967-3.007927 2.271945-4.351894 3.551914-2.175947 2.399942-4.127899 4.92788-6.399844 7.263823l-1.119972-1.119973a182.107561 182.107561 0 0 1-225.146512 5.247872 34.431161 34.431161 0 0 1-6.239848-4.127899l-3.679911-3.71191-39.135046-39.135046-26.911344-26.911344a32.863199 32.863199 0 0 1 46.494867-46.494867l23.231434 23.231434 0.511987-0.511988c1.087973 1.279969 1.919953 2.975927 3.199922 4.191898l39.167046 39.103047A118.397114 118.397114 0 0 0 640.0548 616.432974l81.598011-81.598011 209.210901-209.2109a104.413455 104.413455 0 0 0-3.039926-143.804495L842.289871 96.221655a104.477453 104.477453 0 0 0-143.99649-3.199922l-22.623449 22.623448L606.071629 185.595476a32.895198 32.895198 0 0 1-46.526866-46.494867l69.7263-69.7263 22.655448-22.655448a169.755862 169.755862 0 0 1 236.794228 3.199922l85.533915 85.565915a169.595866 169.595866 0 0 1 3.167923 236.602232z m-348.119515 22.623449l23.263433 23.263433a32.863199 32.863199 0 1 1-46.494866 46.494867l-23.263433-23.263433-46.494867-46.494867a98.749593 98.749593 0 0 0-139.4846 0L94.596096 696.943012a98.717594 98.717594 0 0 0 0 139.4846l92.989733 92.989733a98.781592 98.781592 0 0 0 139.5166 0l23.263433-23.263433 69.758299-69.7263a32.895198 32.895198 0 0 1 46.494867 46.526866l-69.7583 69.694301-23.231433 23.263433a164.603988 164.603988 0 0 1-232.538332 0L48.06923 882.922479a164.571989 164.571989 0 0 1 0-232.474334l302.232633-302.264632a164.539989 164.539989 0 0 1 232.442334 0z" fill="currentColor" p-id="42096"></path></svg>