<?xml version="1.0" standalone="no"?><!DOCTYPE svg PUBLIC "-//W3C//DTD SVG 1.1//EN" "http://www.w3.org/Graphics/SVG/1.1/DTD/svg11.dtd"><svg t="1719915857706" class="icon" viewBox="0 0 1024 1024" version="1.1" xmlns="http://www.w3.org/2000/svg" p-id="4327" xmlns:xlink="http://www.w3.org/1999/xlink" width="256" height="256"><path d="M814.24 97.8h20v562.04h-20z" fill="#E4EBED" p-id="4328"></path><path d="M850.24 271V668a8.56 8.56 0 0 1-2.32 5.64l-199.32 199.32a8 8 0 0 1-5.76 2.32H207.72l13.08 74.12a32.32 32.32 0 0 0 31.68 26.6 32.36 32.36 0 0 0 5.68-0.52l666.24-120.96a32.36 32.36 0 0 0 26.2-37.4l-96.4-546.48z" fill="#40BDFF" p-id="4329"></path><path d="M650.96 847.88l172-172h-172v172z" fill="#EFFAFE" p-id="4330"></path><path d="M950.6 817.12l-96.4-546.48-4 0.36v90.52l80.36 455.56a32.36 32.36 0 0 1-26.2 37.4l-661.2 120a32 32 0 0 0 9.32 1.4 32.36 32.36 0 0 0 5.68-0.52l666.24-120.84a32.36 32.36 0 0 0 26.2-37.4z" fill="#2197F7" p-id="4331"></path><path d="M802.96 675.88l-152 152v20l172-172h-20z" fill="#E4EBED" p-id="4332"></path><path d="M105.2 877.2h64.6l13.24 75.24a50.28 50.28 0 0 0 49.44 41.56 50.88 50.88 0 0 0 8.84-0.76l686.2-121a50.36 50.36 0 0 0 40.8-58.24L852.24 156V89.8a10 10 0 0 0-10-10H263.76a59.76 59.76 0 0 0-117.84 0H105.2a50.32 50.32 0 0 0-50.28 50.28v696.84A50.32 50.32 0 0 0 105.2 877.2z m744-202.24a10.4 10.4 0 0 0 2.84-6.96V271l96.36 546.48a30.32 30.32 0 0 1-24.6 35.08L237.84 973.52a30.28 30.28 0 0 1-35.08-24.56l-12.64-71.76h452.8a10.04 10.04 0 0 0 7.08-2.92z m-196.4 168v-165.2h165.2zM204.84 50a40 40 0 0 1 38.48 30H166.32a40 40 0 0 1 38.52-30z m-129.92 80A30.32 30.32 0 0 1 105.2 100h40v89.48a60 60 0 1 0 119.68 0V139.68a10 10 0 1 0-20 0v49.8a40 40 0 1 1-79.68 0V100h667.04v557.88h-189.28a10 10 0 0 0-10 10v189.32H105.2a30.32 30.32 0 0 1-30.28-30.28z" fill="#263238" p-id="4333"></path><path d="M236 329.32h515.04a10 10 0 0 0 0-20H236a10 10 0 0 0 0 20zM156 409.32h595.04a10 10 0 0 0 0-20H156a10 10 0 0 0 0 20zM156 489.32h595.04a10 10 0 0 0 0-20H156a10 10 0 1 0 0 20zM156 569.32h595.04a10 10 0 0 0 0-20H156a10 10 0 0 0 0 20zM156 649.32h406.8a10 10 0 0 0 0-20H156a10 10 0 0 0 0 20zM156 729.32h406.8a10 10 0 0 0 0-20H156a10 10 0 0 0 0 20zM156 809.32h406.8a10 10 0 0 0 0-20H156a10 10 0 0 0 0 20z" fill="#263238" p-id="4334"></path><path d="M116.92 924h-16v-16a4 4 0 0 0-8 0v16h-16a4 4 0 1 0 0 8h16v16a4 4 0 0 0 8 0v-16h16a4 4 0 0 0 0-8z" fill="#FFDD00" p-id="4335"></path><path d="M964 405.32h-16v-16a4 4 0 1 0-8 0v16h-16a4 4 0 0 0 0 8h16v16a4 4 0 0 0 8 0v-16h16a4 4 0 0 0 0-8z" fill="#40BDFF" p-id="4336"></path><path d="M930.52 960.36a24 24 0 1 1 24-24 24 24 0 0 1-24 24z m0-40a16 16 0 1 0 16 16 16 16 0 0 0-16-16zM926.52 133.04a24 24 0 1 1 24-24 24 24 0 0 1-24 24z m0-40a16 16 0 1 0 16 16 16 16 0 0 0-16-16z" fill="#FFDD00" p-id="4337"></path></svg>