<?xml version="1.0" standalone="no"?><!DOCTYPE svg PUBLIC "-//W3C//DTD SVG 1.1//EN" "http://www.w3.org/Graphics/SVG/1.1/DTD/svg11.dtd"><svg t="1715779160393" class="icon" viewBox="0 0 1024 1024" version="1.1" xmlns="http://www.w3.org/2000/svg" p-id="27010" xmlns:xlink="http://www.w3.org/1999/xlink" width="256" height="256"><path d="M232.106667 673.28c19.626667 0 35.413333 5.546667 46.933333 16.213333 11.52 10.24 17.066667 22.613333 17.066667 37.12 0 7.253333-1.28 14.08-4.266667 21.333334-2.56 4.266667-5.973333 8.533333-10.666667 12.8 4.693333 3.413333 8.533333 8.106667 11.52 12.8 4.266667 7.253333 5.973333 14.933333 5.973334 23.04 0 17.066667-6.826667 31.146667-19.2 40.96a71.68 71.68 0 0 1-85.76 2.986666c-10.666667-7.253333-25.173333-32.426667-22.613334-37.973333 1.28-3.413333 3.413333-4.693333 8.106667-4.693333h25.6c4.266667 0 6.4 1.28 8.533333 4.266666 2.133333 4.266667 5.12 8.533333 7.68 10.666667a21.333333 21.333333 0 0 0 13.226667 3.413333c6.4 0 11.52-1.706667 15.786667-5.12 4.266667-3.413333 5.973333-7.68 6.4-13.653333 0-6.826667-2.56-11.52-6.4-14.506667a25.173333 25.173333 0 0 0-16.213334-5.12h-3.84a11.946667 11.946667 0 0 1-11.946666-11.52v-11.093333c0-6.4 5.546667-11.52 11.946666-11.52h1.706667c7.68 0 12.8-1.706667 17.066667-5.12a14.08 14.08 0 0 0 5.12-11.52 15.786667 15.786667 0 0 0-5.546667-11.946667 23.893333 23.893333 0 0 0-26.88-1.28 23.04 23.04 0 0 0-7.68 10.24L213.333333 725.333333c-1.28 2.56-4.266667 4.266667-7.68 4.266667h-25.173333c-5.546667 0-8.533333-3.84-7.253333-7.68 2.133333-14.08 8.533333-26.88 18.773333-34.986667 11.093333-9.386667 24.746667-14.08 40.533333-14.08zM840.533333 746.666667c7.253333 0 12.8 5.546667 12.8 12.8v38.4a12.8 12.8 0 0 1-12.8 12.8H396.8a12.8 12.8 0 0 1-12.8-12.8v-38.4c0-7.253333 5.546667-12.8 12.8-12.8h443.733333zM233.386667 426.666667c18.773333 0 34.133333 5.12 46.506666 15.36 12.373333 10.24 18.773333 23.04 18.773334 38.4 0 12.8-4.266667 23.893333-13.653334 33.706666l-53.333333 55.466667h55.466667c6.4 0 11.52 4.693333 11.52 10.666667v15.786666c0 5.973333-5.12 10.666667-11.093334 10.666667H181.76a11.093333 11.093333 0 0 1-11.093333-10.666667v-20.906666l78.933333-82.346667c2.56-2.56 4.266667-5.12 4.693333-6.4 0.853333-2.133333 0.853333-4.266667 0.853334-5.973333 0-4.266667-1.28-8.533333-4.693334-11.52-3.413333-3.413333-8.533333-5.12-14.933333-5.12a22.186667 22.186667 0 0 0-14.506667 4.266666 18.773333 18.773333 0 0 0-7.253333 12.8c0 4.266667-2.986667 6.826667-6.4 6.826667h-29.866667a7.253333 7.253333 0 0 1-6.826666-7.253333c0.853333-15.36 7.253333-28.16 18.773333-38.4 11.946667-10.24 26.453333-15.36 43.946667-15.36z m607.146666 42.666666c7.253333 0 12.8 5.546667 12.8 12.8v38.4a12.8 12.8 0 0 1-12.8 12.8H396.8a12.8 12.8 0 0 1-12.8-12.8v-38.4c0-7.253333 5.546667-12.8 12.8-12.8h443.733333zM245.333333 182.613333c5.973333 0 10.666667 5.12 10.666667 11.093334V349.866667c0 5.973333-4.693333 10.666667-10.666667 10.666666h-21.333333A10.666667 10.666667 0 0 1 213.333333 349.866667V234.666667l-30.72 15.36A7.68 7.68 0 0 1 170.666667 244.053333v-29.013333c0-4.266667 2.133333-7.68 5.973333-9.386667l40.533333-21.333333a10.666667 10.666667 0 0 1 5.546667-1.706667h22.613333zM840.533333 213.333333c7.253333 0 12.8 5.546667 12.8 12.8v38.4a12.8 12.8 0 0 1-12.8 12.8H396.8a12.8 12.8 0 0 1-12.8-12.8v-38.4c0-7.253333 5.546667-12.8 12.8-12.8h443.733333z" p-id="27011" fill="currentColor"></path></svg>