<?xml version="1.0" standalone="no"?><!DOCTYPE svg PUBLIC "-//W3C//DTD SVG 1.1//EN" "http://www.w3.org/Graphics/SVG/1.1/DTD/svg11.dtd"><svg t="1715779417515" class="icon" viewBox="0 0 1024 1024" version="1.1" xmlns="http://www.w3.org/2000/svg" p-id="37785" xmlns:xlink="http://www.w3.org/1999/xlink" width="256" height="256"><path d="M65.28 60.373333a32 32 0 0 1 34.346667-3.669333l853.333333 426.666667a32 32 0 0 1 0 57.258666l-853.333333 426.666667a32 32 0 0 1-45.354667-36.394667l85.333333-341.333333a32 32 0 0 1 23.296-23.296L380.074667 512l-217.173334-54.272a32 32 0 0 1-23.296-23.296l-85.333333-341.333333a32 32 0 0 1 11.050667-32.725334zM133.290667 145.066667l63.786666 255.232 322.730667 80.64a32 32 0 0 1 0 62.122666l-322.730667 80.64L133.248 878.933333l733.866667-366.933333-733.866667-366.933333z" fill="currentColor" p-id="37786"></path></svg>