<?xml version="1.0" standalone="no"?><!DOCTYPE svg PUBLIC "-//W3C//DTD SVG 1.1//EN" "http://www.w3.org/Graphics/SVG/1.1/DTD/svg11.dtd"><svg t="1715778508711" class="icon" viewBox="0 0 1024 1024" version="1.1" xmlns="http://www.w3.org/2000/svg" p-id="8604" xmlns:xlink="http://www.w3.org/1999/xlink" width="256" height="256"><path d="M934.4 978.432H89.6a46.08 46.08 0 0 1-46.933333-46.933333c0-26.624 20.352-46.933333 46.933333-46.933334h844.8c26.581333 0 46.933333 20.309333 46.933333 46.933334 0 26.581333-20.352 46.933333-46.933333 46.933333zM512 828.245333a332.501333 332.501333 0 0 1-333.226667-333.226666V88.234667c0-26.581333 20.352-46.933333 46.933334-46.933334 26.581333 0 46.933333 20.352 46.933333 46.933334v406.784c0 131.413333 107.946667 239.36 239.36 239.36a239.36 239.36 0 0 0 239.36-239.36V88.234667c0-26.581333 20.352-46.933333 46.933333-46.933334 26.581333 0 46.933333 20.352 46.933334 46.933334v406.784c0 184.576-150.186667 333.226667-333.226667 333.226666z" fill="currentColor" p-id="8605"></path></svg>