<?xml version="1.0" standalone="no"?>
<!DOCTYPE svg PUBLIC "-//W3C//DTD SVG 1.1//EN" "http://www.w3.org/Graphics/SVG/1.1/DTD/svg11.dtd"><svg t="1715642924888"
    class="icon" viewBox="0 0 1024 1024" version="1.1" xmlns="http://www.w3.org/2000/svg" p-id="10231"
    xmlns:xlink="http://www.w3.org/1999/xlink" width="256" height="256">
    <path
        d="M987.779554 116.549891L710.355814 167.115843 758.563769 0 373.58013 75.435929l-5.997995 101.279905L30.290452 116.427891C7.060473 115.075892-6.475514 131.757876 3.116477 154.919855l488.111542 855.965197c10.50599 17.149984 34.693967 17.819983 45.299958 0L1015.149528 154.837855c10.79999-19.351982-5.747995-42.035961-27.369974-38.287964z m-473.999556 870.869183L35.740446 149.11186l329.985691 58.981945-15.555985 262.729754 135.263873-31.215971-37.715965 184.687827 102.747904-31.215971-50.989952 246.793769c-2.539998 16.137985 18.481983 24.723977 28.879973 1.623998l300.439718-599.583438-148.269861 28.615973 20.171981-69.923934 281.819736-51.367952L513.779998 987.419074z"
        fill="currentColor" p-id="10232"></path>
</svg>