<svg width="1024" height="1024" xmlns="http://www.w3.org/2000/svg" t="1715426620142" class="icon" version="1.1"
    p-id="18681">
    <g>
        <title>background</title>
        <rect x="-1" y="-1" width="1026" height="1026" id="canvas_background" fill="none" />
    </g>

    <g>
        <title>Layer 1</title>
        <path
            d="m972.8,1010.74287l-921.6,0a25.6,29.21607 0 0 1 -25.6,-29.21607l0,-876.48209a25.6,29.21607 0 0 1 25.6,-29.21607l921.6,0a25.6,29.21607 0 0 1 25.6,29.21607l0,876.48209a25.6,29.21607 0 0 1 -25.6,29.21607zm-896,-58.43214l870.4,0l0,-818.04995l-870.4,0l0,818.04995z"
            fill="currentColor" p-id="18682" id="svg_1" stroke="null" />
        <path
            d="m277.31429,192.45717a25.6,25.6 0 0 1 -25.6,-25.6l0,-128a25.6,25.6 0 1 1 51.2,0l0,128a25.6,25.6 0 0 1 -25.6,25.6zm460.8,0a25.6,25.6 0 0 1 -25.6,-25.6l0,-128a25.6,25.6 0 1 1 51.2,0l0,128a25.6,25.6 0 0 1 -25.6,25.6zm230.4,100.672l-913.28,0a25.6,25.6 0 1 1 0,-51.2l913.28,0a25.6,25.6 0 1 1 0,51.2zm-510.912,206.528"
            fill="currentColor" p-id="18683" id="svg_3" />
        <g stroke="null" id="svg_7">
            <path stroke="null" id="svg_6" fill="currentColor" p-id="17639"
                d="m806.079049,474.33263c-51.496589,-100.735105 -162.65646,-158.667199 -283.526041,-158.667199c-149.108027,0 -273.979414,104.975263 -304.137221,245.452436c32.616597,-58.320984 108.161653,-99.279903 187.495253,-99.279903c99.442986,0 151.905528,61.381926 153.36073,62.950032c27.598659,29.856731 41.397988,63.213474 41.397988,104.247662c0,13.046639 -6.661313,32.39079 -18.955261,48.385467c-1.969541,2.508969 -8.016156,6.071705 -8.016156,13.799329c0,6.347692 4.127254,12.444486 11.465988,17.562783c34.949938,24.299365 100.822919,21.087884 100.998547,21.087884a144.754966,144.754966 0 0 0 73.525336,-20.297559a149.183296,149.183296 0 0 0 73.951861,-128.509392c0.627242,-54.482262 -19.44451,-90.699229 -27.561024,-106.731541zm-337.644502,428.017565a194.294559,194.294559 0 0 1 -58.509157,-56.451802c-41.322719,-59.487655 -42.953549,-119.928718 -25.215138,-170.609891a195.072339,195.072339 0 0 1 71.467982,-99.003916c74.014585,-56.702699 118.97531,-7.087837 124.269234,-1.254484a100.35876,100.35876 0 0 0 -6.134429,-12.720473c-11.591437,-19.983938 -30.107628,-45.67578 -70.953643,-67.127465c-42.301217,-22.191831 -88.554061,-23.320867 -97.398176,-23.320867c-48.561095,0 -97.724342,16.308298 -134.894718,44.772552c-24.788614,18.942716 -53.528853,50.831712 -58.760054,93.83544c-1.354843,15.442704 -3.449832,78.781626 28.853143,148.367881a311.112155,311.112155 0 0 0 311.4885,177.647549c-47.820949,-8.304687 -82.607804,-33.419467 -84.213544,-34.134523zm314.524353,-123.35346a9.7348,9.7348 0 0 0 -9.935517,-0.288531a227.889654,227.889654 0 0 1 -25.604029,11.440899a247.810867,247.810867 0 0 1 -87.249397,15.706146c-114.998594,0 -215.169181,-79.107792 -215.169181,-180.645767a76.674092,76.674092 0 0 1 8.179239,-33.55746a211.656624,211.656624 0 0 0 -48.623819,62.724225c-18.716909,36.84421 -41.397988,110.557719 16.722278,190.255119c8.166694,11.177457 28.853143,37.634535 70.251132,59.801276c29.5682,15.869229 61.46974,24.600441 89.946538,24.600441c44.082585,0 144.805145,-41.949962 204.480973,-136.575727a9.722255,9.722255 0 0 0 -2.998218,-13.460619z" />
        </g>
    </g>
</svg>