<?xml version="1.0" standalone="no"?><!DOCTYPE svg PUBLIC "-//W3C//DTD SVG 1.1//EN" "http://www.w3.org/Graphics/SVG/1.1/DTD/svg11.dtd"><svg t="1715424001360" class="icon" viewBox="0 0 1024 1024" version="1.1" xmlns="http://www.w3.org/2000/svg" p-id="12562" xmlns:xlink="http://www.w3.org/1999/xlink" width="200" height="200"><path d="M864 64H704V32c0-17.066667-14.933333-32-32-32S640 14.933333 640 32V64H384V32c0-17.066667-14.933333-32-32-32S320 14.933333 320 32V64H160C142.933333 64 128 78.933333 128 96v896c0 17.066667 14.933333 32 32 32h704c17.066667 0 32-14.933333 32-32v-896c0-17.066667-14.933333-32-32-32zM832 960H192V128h128v64c0 17.066667 14.933333 32 32 32S384 209.066667 384 192V128h256v64c0 17.066667 14.933333 32 32 32S704 209.066667 704 192V128h128v832z" fill="#ffffff" p-id="12563"></path><path d="M704 384H320c-17.066667 0-32 14.933333-32 32S302.933333 448 320 448h384c17.066667 0 32-14.933333 32-32S721.066667 384 704 384zM704 640H320c-17.066667 0-32 14.933333-32 32S302.933333 704 320 704h384c17.066667 0 32-14.933333 32-32S721.066667 640 704 640z" fill="#ffffff" p-id="12564"></path></svg>