<?xml version="1.0" standalone="no"?><!DOCTYPE svg PUBLIC "-//W3C//DTD SVG 1.1//EN" "http://www.w3.org/Graphics/SVG/1.1/DTD/svg11.dtd"><svg t="1715420601386" class="icon" viewBox="0 0 1024 1024" version="1.1" xmlns="http://www.w3.org/2000/svg" p-id="9127" xmlns:xlink="http://www.w3.org/1999/xlink" width="200" height="200"><path d="M1014.4 416c-6.4-32-25.6-51.2-48-51.2H960c-70.4 0-124.8-57.6-124.8-124.8-3.2-22.4 9.6-48 9.6-48 12.8-28.8 3.2-60.8-22.4-80l-128-70.4c-9.6-6.4-19.2-9.6-28.8-9.6-19.2 0-38.4 6.4-51.2 22.4-12.8 16-60.8 54.4-99.2 54.4-38.4 0-86.4-41.6-99.2-57.6-12.8-12.8-32-19.2-54.4-19.2-9.6 0-19.2 3.2-25.6 6.4L201.6 108.8C176 128 166.4 163.2 179.2 192c0 0 12.8 25.6 12.8 48 0 70.4-57.6 124.8-124.8 124.8h-6.4c-25.6 0-41.6 19.2-48 51.2 0 3.2-9.6 57.6-9.6 99.2s9.6 99.2 9.6 99.2c6.4 32 25.6 51.2 48 51.2H64c70.4 0 124.8 57.6 124.8 124.8 0 22.4-9.6 48-9.6 48-12.8 28.8-3.2 60.8 22.4 80l124.8 70.4c9.6 3.2 16 6.4 25.6 6.4 19.2 0 38.4-6.4 51.2-22.4 16-19.2 64-60.8 102.4-60.8 38.4 0 86.4 44.8 102.4 60.8 12.8 12.8 32 22.4 51.2 22.4 9.6 0 19.2 0 25.6-6.4l128-70.4c25.6-16 35.2-51.2 22.4-80 0 0-9.6-25.6-9.6-48 0-70.4 57.6-124.8 124.8-124.8h6.4c22.4 0 41.6-19.2 48-51.2 0 0 9.6-57.6 9.6-99.2 9.6-41.6 0-96 0-99.2z m-70.4 182.4c-102.4 6.4-182.4 92.8-182.4 198.4 0 28.8 9.6 57.6 16 70.4l-112 64c-3.2-6.4-22.4-22.4-44.8-38.4-38.4-28.8-76.8-41.6-108.8-41.6s-70.4 12.8-108.8 41.6c-22.4 16-38.4 32-44.8 38.4L246.4 864c6.4-12.8 16-41.6 16-70.4 0-102.4-80-188.8-182.4-198.4-3.2-16-9.6-51.2-9.6-80 0-28.8 6.4-67.2 9.6-80 102.4-6.4 182.4-92.8 182.4-195.2 0-28.8-9.6-57.6-16-70.4l115.2-64c3.2 3.2 22.4 22.4 44.8 38.4 38.4 25.6 73.6 41.6 105.6 41.6s67.2-12.8 105.6-38.4c22.4-16 38.4-32 44.8-35.2l112 60.8c-6.4 12.8-16 41.6-16 70.4 0 102.4 80 188.8 182.4 195.2 3.2 16 9.6 51.2 9.6 80 3.2 25.6-3.2 64-6.4 80z" fill="#ffffff" p-id="9128"></path><path d="M508.8 336c-99.2 0-182.4 80-182.4 182.4 0 99.2 80 182.4 182.4 182.4 99.2 0 182.4-80 182.4-182.4s-80-182.4-182.4-182.4z m0 288c-60.8 0-108.8-48-108.8-108.8s48-108.8 108.8-108.8 108.8 48 108.8 108.8-48 108.8-108.8 108.8z" fill="#ffffff" p-id="9129"></path></svg>